<svg id="Layer_1" data-name="Layer 1" xmlns="http://www.w3.org/2000/svg" viewBox="0 0 146 114.35"><defs><style>.cls-1{fill:#ebebeb;}.cls-10,.cls-2,.cls-4{fill:#fff;}.cls-3{fill:#231f20;}.cls-4,.cls-6,.cls-9{stroke:#231f20;}.cls-11,.cls-12,.cls-4,.cls-6,.cls-7,.cls-9{stroke-linecap:round;}.cls-10,.cls-11,.cls-12,.cls-4,.cls-6,.cls-7{stroke-linejoin:round;}.cls-5{fill:#fed502;}.cls-11,.cls-12,.cls-6,.cls-7,.cls-9{fill:none;}.cls-11,.cls-7{stroke:#241f20;}.cls-8{fill:#e8d500;}.cls-9{stroke-miterlimit:10;}.cls-10{stroke:#ebebeb;}.cls-11,.cls-12{stroke-dasharray:1 3;}.cls-12{stroke:#fff;}.cls-13{fill:#f59a08;}.cls-14{fill:#feb702;}</style></defs><circle class="cls-1" cx="76.365" cy="6.876" r="5.411"/><path class="cls-2" d="M79.01,7.33a.386.386,0,0,0,0-.669L76.99,5.494,74.969,4.327a.387.387,0,0,0-.58.335V9.329a.386.386,0,0,0,.58.334L76.99,8.5Z"/><line class="cls-1" x1="76.145" y1="11.995" x2="72.968" y2="10.299"/><path class="cls-1" d="M76.145,12l-2.9,2.048a.222.222,0,0,1-.35-.186l.077-3.558Z"/><path class="cls-1" d="M40.519,30.468a7.049,7.049,0,0,0-.8.094,1.85,1.85,0,0,0-.05-.368c-.3-1.219-1.753-1.923-3.331-1.67a5.177,5.177,0,0,0-5.2-4.056,5.677,5.677,0,0,0-1.009.092,9.111,9.111,0,0,0-17.881-1.781c-.047,0-.093-.007-.14-.007a5.685,5.685,0,0,0-5.89,5.454,5.065,5.065,0,0,0,.2,1.387c-.129,0-.257,0-.387.007C3.024,29.792.686,31.8.818,34.111c0,.052.013.1.019.155H46.208C46.028,31.993,43.5,30.3,40.519,30.468Z"/><path class="cls-1" d="M54.793,68.41a6.4,6.4,0,0,1,7.742-4.447,5.42,5.42,0,0,1,.141-.606c1.054-3.447,5.172-5.242,9.2-4.011a8.732,8.732,0,0,1,2.5,1.228,3,3,0,0,1,.378-2.482,3.548,3.548,0,0,1,4.415-.871,6.02,6.02,0,0,1,.105-2.654c.984-3.612,5.168-5.663,9.605-4.861.9-5.525,6.538-9.781,13.359-9.781,6.889,0,12.568,4.343,13.384,9.95.243-.138.488-.273.743-.4,5.189-2.518,10.958-1.34,12.885,2.63a6.547,6.547,0,0,1,.523,4,9.271,9.271,0,0,1,5.6.549c3.582,1.457,5.757,4.535,5.108,7.073.131.031.261.058.391.1a6.25,6.25,0,0,1,4.323,5.269H54.623A6.817,6.817,0,0,1,54.793,68.41Z"/><path id="sparkle-1" class="cls-3" d="M.877,60.119s.445,0,1.671,1.225a4.117,4.117,0,0,1,1.226,2.674A4.117,4.117,0,0,1,5,61.344a4.166,4.166,0,0,1,1.671-1.225s-.445,0-1.671-1.226a4.117,4.117,0,0,1-1.226-2.674,4.117,4.117,0,0,1-1.226,2.674C1.434,60.119.877,60.119.877,60.119"/><path id="sparkle-1-2" data-name="sparkle-1" class="cls-4" d="M126.951,54.32s.345,0,1.294.949a3.186,3.186,0,0,1,.949,2.07,3.187,3.187,0,0,1,.948-2.07,3.222,3.222,0,0,1,1.294-.949s-.345,0-1.294-.949a3.187,3.187,0,0,1-.948-2.07,3.186,3.186,0,0,1-.949,2.07c-.862.949-1.294.949-1.294.949"/><path class="cls-3" d="M112.025,22.2a4.582,4.582,0,0,0-4.585-4.581l-75.86.037A4.58,4.58,0,0,0,27,22.243l.024,49.532,85.025-.041Z"/><rect class="cls-1" x="31.819" y="22.733" width="75.335" height="43.713"/><path class="cls-5" d="M27.023,71.774l0,4.965a4.581,4.581,0,0,0,4.585,4.58L66.325,81.3c.152,3.347-.342,10.612-7.534,10.615l0,2.545,21.222-.01V91.908c-6.866,0-7.333-7.261-7.186-10.608l34.644-.017a4.581,4.581,0,0,0,4.579-4.585l0-4.965Z"/><path class="cls-3" d="M96.058,91.059a5.384,5.384,0,0,1-3.544-1.439,5.965,5.965,0,0,1-2-6.037,3.565,3.565,0,0,1,2.055-2.268,4.341,4.341,0,0,1,3.623.173l-.912,1.779a2.353,2.353,0,0,0-1.935-.109,1.581,1.581,0,0,0-.921,1.015,4.011,4.011,0,0,0,1.413,3.946,3.094,3.094,0,0,0,3.281.708l.828,1.821A4.55,4.55,0,0,1,96.058,91.059Z"/><path class="cls-3" d="M95.291,79.5v7.322a10.592,10.592,0,0,0,10.561,10.561h.553a10.592,10.592,0,0,0,10.56-10.561V79.514a.668.668,0,0,0-.666-.669c-3.219-.008-17.137-.04-20.346-.013A.668.668,0,0,0,95.291,79.5Z"/><circle class="cls-3" cx="122.369" cy="36.687" r="1.512"/><line class="cls-6" x1="122.341" y1="24.545" x2="122.341" y2="36.768"/><polygon class="cls-3" points="121.691 36.54 121.029 42.455 122.354 42.455 123.679 42.455 123.017 36.54 121.691 36.54"/><polygon class="cls-2" points="140.563 95.487 140.222 89.902 138.607 88.808 135.24 91.378 135.495 93.116 140.563 95.487"/><polygon class="cls-5" points="135.519 91.457 137.07 92.044 137.07 92.044 137.07 92.044 137.07 92.044 137.07 92.044 137.095 90.386 138.646 90.973 138.67 89.314 140.222 89.902 119.618 60.094 118.043 61.166 116.467 62.236 116.467 62.236 114.89 63.309 135.495 93.116 135.519 91.457"/><polygon class="cls-2" points="115.547 57.505 113.971 58.576 112.395 59.648 115.434 64.092 120.162 60.877 117.123 56.433 115.547 57.505"/><path class="cls-5" d="M115.558,57.5l1.566-1.065a2.934,2.934,0,0,0-2.674-.741,2.9,2.9,0,0,0-2.233,3.433,2.838,2.838,0,0,0,.175.525l1.581-1.075Z"/><path class="cls-2" d="M114.911,54.041l.011.015-.007-.018Z"/><polygon class="cls-3" points="138.029 94.302 140.563 95.487 140.393 92.694 138.029 94.302"/><line class="cls-7" x1="113.529" y1="60.791" x2="117.763" y2="57.887"/><line class="cls-7" x1="114.762" y1="62.529" x2="118.996" y2="59.625"/><path class="cls-3" d="M61.919,106.766a1.34,1.34,0,0,0,1.031.315l3.931-.458a1.139,1.139,0,0,0,1.037-1.375,1.308,1.308,0,0,0-1.348-1.292l-3.931.459a1.342,1.342,0,0,0-.72,2.351Z"/><path class="cls-5" d="M44.665,112.276c.047.513.3.642.55.6l15.84-1.81a.7.7,0,0,0,.609-.795l-.009-1.029c0-.378.08-1-.226-1.276a.7.7,0,0,0-.573-.174c-.832.126-.628,1.383-.674,1.975L45.057,111.5C44.876,111.52,44.618,111.763,44.665,112.276Z"/><path class="cls-8" d="M20.993,109.622l.088,1s-1.5.133-1.548-.366S20.993,109.622,20.993,109.622Z"/><path class="cls-3" d="M59.617,106c.24,2.2-.622,2.788-.622,2.788l.019.023-28.194,3.2a22.784,22.784,0,0,1-7.55-.419,10.97,10.97,0,0,1-2.353-.753l-.071-1.352a14.713,14.713,0,0,1,3.1-1.484,23.058,23.058,0,0,1,5.631-1.341l28.872-3.276C58.67,103.486,59.406,104.061,59.617,106Z"/><path class="cls-5" d="M62.751,102.917s1.154.389,1.394,2.59-.8,2.83-.8,2.83l-4.327.471L59,108.785s.862-.585.622-2.788c-.211-1.936-.947-2.511-1.165-2.611Z"/><path class="cls-9" d="M79.109,111.852c7.668.285,9.27.314,16.941.083,3.128-.094,17.433.285,17.452-3.1.012-2-3.9-2.582-4.307-4.027-.7-3.3,28.436.114,31.787-3.368a2.586,2.586,0,0,0,.03-3.8"/><path class="cls-3" d="M89.553,99.984a1.484,1.484,0,0,0-1.2-.48,2.186,2.186,0,0,0-1.349.879,2.217,2.217,0,0,0-1.341-.906,1.446,1.446,0,0,0-1.174.433,1.773,1.773,0,0,0-.012,2.356,12.072,12.072,0,0,0,1.772,1.621c.225.191.462.373.677.574a.056.056,0,0,0,.078,0,23.193,23.193,0,0,0,2.318-2.088C89.848,101.735,90.255,100.657,89.553,99.984Z"/><path class="cls-1" d="M12.282,86.567s2.638,4.3-.2,10.209l30.921-.1,4.006-2.2.684-2.931-.733-2.784-1.954-1.612-2.98-.635-4.2-.1Z"/><path class="cls-9" d="M11.124,86.518H42.688a5.035,5.035,0,0,1,5.01,5.031h0a5.035,5.035,0,0,1-5.01,5.032H11.124"/><path class="cls-1" d="M15.84,79.382a7.91,7.91,0,0,1-.139,7.3l22.1-.069,2.864-1.572.488-2.095-.523-1.99-1.4-1.153-2.13-.454-3-.07Z"/><path class="cls-9" d="M15.013,79.347H37.576a3.6,3.6,0,0,1,3.581,3.6h0a3.6,3.6,0,0,1-3.581,3.6H15.013"/><path class="cls-3" d="M30.524,82.448V91.9l1.927-1.478L34.109,91.9V82.448A31.971,31.971,0,0,0,30.524,82.448Z"/><path class="cls-10" d="M66.419,26.869c1.522.463,3.04,1.386,3.16,2.737V65.061c-.79-3.212-5.688-3.569-5.688-3.569H35.924v-35.1H61.836A15.489,15.489,0,0,1,66.419,26.869Z"/><path class="cls-10" d="M72.7,26.806c-1.523.463-3.041,1.385-3.161,2.736V65c.791-3.212,5.689-3.569,5.689-3.569h27.966V26.33H77.282A15.45,15.45,0,0,0,72.7,26.806Z"/><line class="cls-9" x1="97.196" y1="32.8" x2="75.59" y2="32.8"/><line class="cls-9" x1="97.196" y1="35.086" x2="75.59" y2="35.086"/><line class="cls-9" x1="97.196" y1="46.092" x2="83.523" y2="46.092"/><line class="cls-9" x1="92.907" y1="48.378" x2="83.523" y2="48.378"/><line class="cls-9" x1="97.196" y1="40.758" x2="83.523" y2="40.758"/><line class="cls-9" x1="97.196" y1="53.838" x2="83.523" y2="53.838"/><circle class="cls-1" cx="77.474" cy="53.883" r="2.379"/><circle class="cls-1" cx="77.474" cy="40.948" r="2.379"/><circle class="cls-5" cx="77.474" cy="47.42" r="2.379"/><path class="cls-7" d="M76.192,46.9l1.388,1.886a25.859,25.859,0,0,1,1.945-3.867"/><path class="cls-11" d="M25.471,43.76a54.62,54.62,0,0,1-11.247,7.433S8.036,53.845,4.942,48.1c0,0-2.652-4.42,3.094-7.073,0,0,7.072-1.326,8.4,3.979s3.088,10.515-7.52,24.659-6.355,21.368.275,21.81l1.882.095"/><path class="cls-11" d="M41.664,25.1s-3.448,5.076-8.848,11.945"/><path class="cls-5" d="M114.7,30.455l5.144-7.367L96.625,6.877,91.3,14.5c-.025.03-.053.058-.077.089l-.131.187c-1.709,2.705,1.981,8.418,8.335,12.855,6.073,4.241,12.4,5.794,14.655,3.71l.612-.877Z"/><path class="cls-3" d="M91.582,2.323l12.532,18.66a.435.435,0,0,0,.256.179l21.666,5.425a.435.435,0,0,0,.465-.667L113.85,7.383a.435.435,0,0,0-.251-.176L92.052,1.659A.435.435,0,0,0,91.582,2.323Z"/><path class="cls-5" d="M52.861,37.86c4.976,0,9.009,3.055,9.009,6.825a6.3,6.3,0,0,1-3.16,5.189,5.537,5.537,0,0,0,1.221,1.779.328.328,0,0,1-.213.58,7.26,7.26,0,0,1-4.1-1.049,11.663,11.663,0,0,1-2.753.326c-4.975,0-9.009-3.056-9.009-6.825S47.886,37.86,52.861,37.86Z"/><circle class="cls-3" cx="52.86" cy="44.784" r="1.101"/><circle class="cls-3" cx="57.094" cy="44.784" r="1.101"/><circle class="cls-3" cx="48.635" cy="44.784" r="1.101"/><path class="cls-12" d="M31.139,38.192a33.278,33.278,0,0,1-4.069,4.172"/><polygon class="cls-5" points="63.84 3.79 32.278 16.01 38.285 22.744 43.472 23.438 43.773 28.932 49.359 34.966 63.84 3.79"/><polygon class="cls-13" points="63.84 3.79 38.285 22.744 43.472 23.438 43.773 28.932 63.84 3.79"/><polygon class="cls-14" points="63.84 3.79 43.773 28.932 43.472 23.438 63.84 3.79"/></svg>